<svg width="42" height="43" viewBox="0 0 42 43" fill="none" xmlns="http://www.w3.org/2000/svg">
<g filter="url(#filter0_d_84_10063)">
<path fill-rule="evenodd" clip-rule="evenodd" d="M18.5632 18.5632L21.5295 26.4734C21.8204 27.249 21.4274 28.1137 20.6517 28.4045C19.876 28.6954 19.0114 28.3024 18.7205 27.5267L14.5955 16.5267C14.389 15.976 14.5235 15.3553 14.9394 14.9394C15.3553 14.5235 15.976 14.389 16.5267 14.5955L27.5267 18.7205C28.3024 19.0114 28.6954 19.876 28.4045 20.6517C28.1137 21.4274 27.249 21.8204 26.4734 21.5295L18.5632 18.5632Z" fill="white"/>
<path fill-rule="evenodd" clip-rule="evenodd" d="M30.4394 24.9394C31.0252 24.3536 31.9749 24.3536 32.5607 24.9394L38.0607 30.4394C38.6465 31.0252 38.6465 31.9749 38.0607 32.5607L32.5607 38.0607C31.9749 38.6465 31.0252 38.6465 30.4394 38.0607L24.9394 32.5607C24.3536 31.9749 24.3536 31.0252 24.9394 30.4394L30.4394 24.9394Z" fill="white"/>
<path fill-rule="evenodd" clip-rule="evenodd" d="M15.6465 15.6465C15.7851 15.5078 15.992 15.463 16.1756 15.5319L27.1756 19.6569C27.4342 19.7538 27.5652 20.042 27.4682 20.3006C27.3712 20.5592 27.083 20.6902 26.8245 20.5932L16.8544 16.8544L20.5932 26.8245C20.6902 27.083 20.5592 27.3712 20.3006 27.4682C20.042 27.5652 19.7538 27.4342 19.6569 27.1756L15.5319 16.1756C15.463 15.992 15.5078 15.7851 15.6465 15.6465Z" fill="black"/>
<path fill-rule="evenodd" clip-rule="evenodd" d="M31.1465 25.6465C31.3417 25.4512 31.6583 25.4512 31.8536 25.6465L33.8536 27.6465C34.0488 27.8417 34.0488 28.1583 33.8536 28.3536C33.6583 28.5488 33.3417 28.5488 33.1465 28.3536L32 27.2071V31H35.7929L34.6465 29.8536C34.4512 29.6583 34.4512 29.3417 34.6465 29.1465C34.8417 28.9512 35.1583 28.9512 35.3536 29.1465L37.3536 31.1465C37.5488 31.3417 37.5488 31.6583 37.3536 31.8536L35.3536 33.8536C35.1583 34.0488 34.8417 34.0488 34.6465 33.8536C34.4512 33.6583 34.4512 33.3417 34.6465 33.1465L35.7929 32H32V35.7929L33.1465 34.6465C33.3417 34.4512 33.6583 34.4512 33.8536 34.6465C34.0488 34.8417 34.0488 35.1583 33.8536 35.3536L31.8536 37.3536C31.6583 37.5488 31.3417 37.5488 31.1465 37.3536L29.1465 35.3536C28.9512 35.1583 28.9512 34.8417 29.1465 34.6465C29.3417 34.4512 29.6583 34.4512 29.8536 34.6465L31 35.7929V32H27.2071L28.3536 33.1465C28.5488 33.3417 28.5488 33.6583 28.3536 33.8536C28.1583 34.0488 27.8417 34.0488 27.6465 33.8536L25.6465 31.8536C25.4512 31.6583 25.4512 31.3417 25.6465 31.1465L27.6465 29.1465C27.8417 28.9512 28.1583 28.9512 28.3536 29.1465C28.5488 29.3417 28.5488 29.6583 28.3536 29.8536L27.2071 31H31V27.2071L29.8536 28.3536C29.6583 28.5488 29.3417 28.5488 29.1465 28.3536C28.9512 28.1583 28.9512 27.8417 29.1465 27.6465L31.1465 25.6465Z" fill="black"/>
</g>
<defs>
<filter id="filter0_d_84_10063" x="-3" y="-2" width="44.5" height="44.5" filterUnits="userSpaceOnUse" color-interpolation-filters="sRGB">
<feFlood flood-opacity="0" result="BackgroundImageFix"/>
<feColorMatrix in="SourceAlpha" type="matrix" values="0 0 0 0 0 0 0 0 0 0 0 0 0 0 0 0 0 0 127 0" result="hardAlpha"/>
<feOffset dy="1"/>
<feGaussianBlur stdDeviation="1.5"/>
<feComposite in2="hardAlpha" operator="out"/>
<feColorMatrix type="matrix" values="0 0 0 0 0 0 0 0 0 0 0 0 0 0 0 0 0 0 0.35 0"/>
<feBlend mode="normal" in2="BackgroundImageFix" result="effect1_dropShadow_84_10063"/>
<feBlend mode="normal" in="SourceGraphic" in2="effect1_dropShadow_84_10063" result="shape"/>
</filter>
</defs>
</svg>
