<svg width="42" height="43" viewBox="0 0 42 43" fill="none" xmlns="http://www.w3.org/2000/svg">
<g filter="url(#filter0_d_84_9960)">
<path fill-rule="evenodd" clip-rule="evenodd" d="M14.9394 14.9394C15.3553 14.5234 15.976 14.389 16.5267 14.5955L27.5267 18.7205C28.1416 18.9511 28.535 19.5547 28.4976 20.2103C28.4603 20.8659 28.0009 21.421 27.3638 21.5802L22.737 22.7369L21.5803 27.3638C21.421 28.0008 20.8659 28.4602 20.2103 28.4976C19.5548 28.5349 18.9511 28.1415 18.7205 27.5267L14.5955 16.5267C14.389 15.9759 14.5235 15.3553 14.9394 14.9394Z" fill="white"/>
<path fill-rule="evenodd" clip-rule="evenodd" d="M26.2072 30C26.7254 28.1679 28.168 26.7254 30 26.2072V26C30 25.1716 30.6716 24.5 31.5 24.5C32.3285 24.5 33 25.1716 33 26V26.2072C34.8321 26.7254 36.2746 28.1679 36.7928 30H37C37.8285 30 38.5 30.6716 38.5 31.5C38.5 32.3284 37.8285 33 37 33H36.7928C36.2746 34.8321 34.8321 36.2746 33 36.7928V37C33 37.8284 32.3285 38.5 31.5 38.5C30.6716 38.5 30 37.8284 30 37V36.7928C28.168 36.2746 26.7254 34.8321 26.2072 33H26C25.1716 33 24.5 32.3284 24.5 31.5C24.5 30.6716 25.1716 30 26 30H26.2072Z" fill="white"/>
<path fill-rule="evenodd" clip-rule="evenodd" d="M16.1756 15.5318C15.992 15.463 15.7851 15.5078 15.6465 15.6465C15.5078 15.7851 15.463 15.992 15.5319 16.1756L19.6569 27.1756C19.7337 27.3805 19.935 27.5117 20.1535 27.4992C20.372 27.4868 20.557 27.3336 20.6101 27.1213L21.9124 21.9123L27.1213 20.6101C27.3337 20.557 27.4868 20.372 27.4992 20.1534C27.5117 19.9349 27.3805 19.7337 27.1756 19.6568L16.1756 15.5318Z" fill="black"/>
<path fill-rule="evenodd" clip-rule="evenodd" d="M32 26C32 25.7239 31.7762 25.5 31.5 25.5C31.2239 25.5 31 25.7239 31 26V27.0275C28.9142 27.258 27.2581 28.9142 27.0275 31H26C25.7239 31 25.5 31.2239 25.5 31.5C25.5 31.7761 25.7239 32 26 32H27.0275C27.2581 34.0858 28.9142 35.742 31 35.9725V37C31 37.2761 31.2239 37.5 31.5 37.5C31.7762 37.5 32 37.2761 32 37V35.9725C34.0858 35.742 35.742 34.0858 35.9726 32H37C37.2762 32 37.5 31.7761 37.5 31.5C37.5 31.2239 37.2762 31 37 31H35.9726C35.742 28.9142 34.0858 27.258 32 27.0275V26ZM31 28.0354C29.4672 28.2547 28.2547 29.4672 28.0355 31H31V28.0354ZM28.0355 32C28.2547 33.5328 29.4672 34.7453 31 34.9646V32H28.0355ZM32 34.9646C33.5329 34.7453 34.7453 33.5328 34.9646 32H32V34.9646ZM34.9646 31H32V28.0354C33.5329 28.2547 34.7453 29.4672 34.9646 31Z" fill="black"/>
</g>
<defs>
<filter id="filter0_d_84_9960" x="-3" y="-2" width="44.5" height="44.5" filterUnits="userSpaceOnUse" color-interpolation-filters="sRGB">
<feFlood flood-opacity="0" result="BackgroundImageFix"/>
<feColorMatrix in="SourceAlpha" type="matrix" values="0 0 0 0 0 0 0 0 0 0 0 0 0 0 0 0 0 0 127 0" result="hardAlpha"/>
<feOffset dy="1"/>
<feGaussianBlur stdDeviation="1.5"/>
<feComposite in2="hardAlpha" operator="out"/>
<feColorMatrix type="matrix" values="0 0 0 0 0 0 0 0 0 0 0 0 0 0 0 0 0 0 0.35 0"/>
<feBlend mode="normal" in2="BackgroundImageFix" result="effect1_dropShadow_84_9960"/>
<feBlend mode="normal" in="SourceGraphic" in2="effect1_dropShadow_84_9960" result="shape"/>
</filter>
</defs>
</svg>
