<svg width="32" height="32" viewBox="0 0 32 32" fill="none" xmlns="http://www.w3.org/2000/svg">
<g filter="url(#filter0_d_84_10081)">
<path fill-rule="evenodd" clip-rule="evenodd" d="M18.3895 20.5103L17.7679 20.5104C16.9394 20.5104 16.2679 21.182 16.2679 22.0104C16.268 22.8388 16.9396 23.5104 17.768 23.5104L22.0108 23.5102C22.8392 23.5102 23.5108 22.8386 23.5107 22.0101L23.5106 17.7676C23.5106 16.9392 22.839 16.2677 22.0105 16.2677C21.1821 16.2677 20.5106 16.9393 20.5106 17.7678L20.5106 18.3888L13.6112 11.4895L14.2324 11.4895C15.0608 11.4896 15.7324 10.818 15.7324 9.98956C15.7324 9.16113 15.0608 8.48955 14.2324 8.48955L9.9898 8.4895C9.59198 8.4895 9.21045 8.64753 8.92914 8.92883C8.64783 9.21013 8.48979 9.59166 8.48979 9.98949L8.48975 14.2322C8.48974 15.0606 9.1613 15.7322 9.98973 15.7322C10.8182 15.7322 11.4897 15.0606 11.4897 14.2322L11.4898 13.6107L18.3895 20.5103Z" fill="white"/>
<path fill-rule="evenodd" clip-rule="evenodd" d="M22.0106 17.2677C21.7344 17.2677 21.5106 17.4916 21.5106 17.7677L21.5107 20.803L11.1969 10.4895L14.2324 10.4895C14.5085 10.4895 14.7324 10.2657 14.7324 9.98955C14.7324 9.71341 14.5085 9.48955 14.2324 9.48954L9.9898 9.48949C9.8572 9.48949 9.73002 9.54217 9.63625 9.63593C9.54248 9.7297 9.4898 9.85688 9.4898 9.98948L9.48977 14.2322C9.48977 14.5083 9.71362 14.7322 9.98976 14.7322C10.2659 14.7322 10.4898 14.5083 10.4898 14.2322L10.4898 11.1966L20.8037 21.5102L17.7679 21.5103C17.4918 21.5104 17.2679 21.7342 17.2679 22.0104C17.268 22.2865 17.4918 22.5103 17.768 22.5103L22.0108 22.5102C22.2869 22.5102 22.5108 22.2863 22.5107 22.0102L22.5106 17.7677C22.5106 17.4915 22.2867 17.2677 22.0106 17.2677Z" fill="black"/>
</g>
<defs>
<filter id="filter0_d_84_10081" x="-3" y="-2" width="38" height="38" filterUnits="userSpaceOnUse" color-interpolation-filters="sRGB">
<feFlood flood-opacity="0" result="BackgroundImageFix"/>
<feColorMatrix in="SourceAlpha" type="matrix" values="0 0 0 0 0 0 0 0 0 0 0 0 0 0 0 0 0 0 127 0" result="hardAlpha"/>
<feOffset dy="1"/>
<feGaussianBlur stdDeviation="1.5"/>
<feComposite in2="hardAlpha" operator="out"/>
<feColorMatrix type="matrix" values="0 0 0 0 0 0 0 0 0 0 0 0 0 0 0 0 0 0 0.35 0"/>
<feBlend mode="normal" in2="BackgroundImageFix" result="effect1_dropShadow_84_10081"/>
<feBlend mode="normal" in="SourceGraphic" in2="effect1_dropShadow_84_10081" result="shape"/>
</filter>
</defs>
</svg>
